# This file uses centimeters as units for non-parametric coordinates.

mtllib corkboard.mtl
g default
v -0.017926 -1.465288 2.298778
v 0.017926 -1.465288 2.298778
v -0.017926 1.465288 2.298778
v 0.017926 1.465288 2.298778
v -0.017926 1.465288 -2.298778
v 0.017926 1.465288 -2.298778
v -0.017926 -1.465288 -2.298778
v 0.017926 -1.465288 -2.298778
v 0.017926 1.465288 2.102731
v -0.017926 1.465288 2.102731
v -0.017926 -1.465288 2.102731
v 0.017926 -1.465288 2.102731
v 0.017926 1.252107 -2.298778
v -0.017926 1.252107 -2.298778
v -0.017926 1.252107 2.102731
v -0.017926 1.252107 2.298778
v 0.017926 1.252107 2.298778
v 0.017926 1.252107 2.102731
v 0.017926 1.465288 -2.072500
v -0.017926 1.465288 -2.072500
v -0.017926 1.252107 -2.072500
v -0.017926 -1.465288 -2.072500
v 0.017926 -1.465288 -2.072500
v 0.017926 1.252107 -2.072500
v 0.017926 -1.249583 2.298778
v -0.017926 -1.249583 2.298778
v -0.017926 -1.249583 2.102731
v -0.017926 -1.249583 -2.072500
v -0.017926 -1.249583 -2.298778
v 0.017926 -1.249583 -2.298778
v 0.017926 -1.249583 -2.072500
v 0.017926 -1.249583 2.102731
v 0.087246 1.252107 2.298778
v 0.087246 1.252107 2.102731
v 0.087246 1.465288 2.102731
v 0.087246 1.465288 2.298778
v 0.087246 1.252107 -2.072500
v 0.087246 1.465288 -2.072500
v 0.087246 -1.465288 2.102731
v 0.087246 -1.465288 2.298778
v 0.087246 -1.249583 2.102731
v 0.087246 -1.249583 2.298778
v 0.087246 -1.249583 -2.072500
v 0.087246 -1.465288 -2.072500
v 0.087246 -1.249583 -2.298778
v 0.087246 -1.465288 -2.298778
v 0.087246 1.252107 -2.298778
v 0.087246 1.465288 -2.298778
vt 0.375000 0.000000
vt 0.625000 0.000000
vt 0.375000 0.250000
vt 0.625000 0.250000
vt 0.375000 0.500000
vt 0.625000 0.500000
vt 0.375000 0.750000
vt 0.625000 0.750000
vt 0.375000 1.000000
vt 0.625000 1.000000
vt 0.875000 0.000000
vt 0.875000 0.250000
vt 0.125000 0.000000
vt 0.125000 0.250000
vt 0.625000 0.260660
vt 0.635660 0.250000
vt 0.364340 0.250000
vt 0.375000 0.260660
vt 0.364340 0.000000
vt 0.375000 0.989340
vt 0.625000 0.989340
vt 0.635660 0.000000
vt 0.625000 0.518186
vt 0.875000 0.231814
vt 0.125000 0.231814
vt 0.375000 0.518186
vt 0.364340 0.231814
vt 0.375000 0.231814
vt 0.625000 0.231814
vt 0.635660 0.231814
vt 0.625000 0.487696
vt 0.862696 0.250000
vt 0.137304 0.250000
vt 0.375000 0.487696
vt 0.137304 0.231814
vt 0.137304 0.000000
vt 0.375000 0.762304
vt 0.625000 0.762304
vt 0.862696 0.000000
vt 0.862696 0.231814
vt 0.625000 0.018401
vt 0.375000 0.018401
vt 0.364340 0.018401
vt 0.137304 0.018401
vt 0.125000 0.018401
vt 0.375000 0.731599
vt 0.625000 0.731599
vt 0.875000 0.018401
vt 0.862696 0.018401
vt 0.635660 0.018401
vt 0.635660 0.250000
vt 0.625000 0.250000
vt 0.625000 0.231814
vt 0.635660 0.231814
vt 0.862696 0.231814
vt 0.862696 0.250000
vt 0.625000 0.000000
vt 0.635660 0.000000
vt 0.625000 0.018401
vt 0.862696 0.018401
vt 0.635660 0.018401
vt 0.862696 0.000000
vt 0.875000 0.000000
vt 0.875000 0.018401
vt 0.875000 0.231814
vt 0.875000 0.250000
vn 0.000000 0.000000 1.000000
vn 0.000000 0.000000 1.000000
vn 0.000000 0.000000 1.000000
vn 0.000000 0.000000 1.000000
vn 0.000000 1.000000 0.000000
vn 0.000000 1.000000 0.000000
vn 0.000000 1.000000 0.000000
vn 0.000000 1.000000 0.000000
vn 0.000000 0.000000 -1.000000
vn 0.000000 0.000000 -1.000000
vn 0.000000 0.000000 -1.000000
vn 0.000000 0.000000 -1.000000
vn 0.000000 -1.000000 0.000000
vn 0.000000 -1.000000 0.000000
vn 0.000000 -1.000000 0.000000
vn 0.000000 -1.000000 0.000000
vn 1.000000 0.000000 0.000000
vn 1.000000 0.000000 0.000000
vn 1.000000 0.000000 0.000000
vn 1.000000 0.000000 0.000000
vn -1.000000 0.000000 0.000000
vn -1.000000 0.000000 0.000000
vn -1.000000 0.000000 0.000000
vn -1.000000 0.000000 0.000000
vn 0.000000 1.000000 0.000000
vn 0.000000 1.000000 0.000000
vn -1.000000 0.000000 0.000000
vn -1.000000 0.000000 0.000000
vn 0.000000 -1.000000 0.000000
vn 0.000000 -1.000000 0.000000
vn 1.000000 0.000000 0.000000
vn 1.000000 0.000000 0.000000
vn 0.000000 0.000000 -1.000000
vn 0.000000 0.000000 -1.000000
vn 0.000000 0.000000 -1.000000
vn 0.000000 0.000000 -1.000000
vn -1.000000 0.000000 0.000000
vn -1.000000 0.000000 0.000000
vn -1.000000 0.000000 0.000000
vn -1.000000 0.000000 0.000000
vn -1.000000 0.000000 0.000000
vn -1.000000 0.000000 0.000000
vn 0.000000 0.000000 1.000000
vn 0.000000 0.000000 1.000000
vn 0.000000 0.000000 1.000000
vn 0.000000 0.000000 1.000000
vn 1.000000 0.000000 0.000000
vn 1.000000 0.000000 0.000000
vn 1.000000 0.000000 0.000000
vn 1.000000 0.000000 0.000000
vn 1.000000 0.000000 0.000000
vn 1.000000 0.000000 0.000000
vn 0.000000 1.000000 0.000000
vn 0.000000 1.000000 0.000000
vn -1.000000 0.000000 0.000000
vn -1.000000 0.000000 0.000000
vn -1.000000 0.000000 0.000000
vn -1.000000 0.000000 0.000000
vn 0.000000 -1.000000 0.000000
vn 0.000000 -1.000000 0.000000
vn 1.000000 0.000000 0.000000
vn 1.000000 0.000000 0.000000
vn 1.000000 0.000000 0.000000
vn 1.000000 0.000000 0.000000
vn 1.000000 0.000000 0.000000
vn 1.000000 0.000000 0.000000
vn 1.000000 0.000000 0.000000
vn 1.000000 0.000000 0.000000
vn 0.000000 1.000000 0.000000
vn 0.000000 1.000000 0.000000
vn 0.000000 0.000000 1.000000
vn 0.000000 0.000000 1.000000
vn 0.000000 -1.000000 0.000000
vn 0.000000 -1.000000 0.000000
vn 0.000000 -1.000000 0.000000
vn 0.000000 -1.000000 0.000000
vn 0.000000 1.000000 0.000000
vn 0.000000 -1.000000 0.000000
vn 0.000000 -1.000000 0.000000
vn 0.000000 0.000000 1.000000
vn 0.000000 0.000000 1.000000
vn 0.000000 1.000000 0.000000
vn 0.000000 1.000000 0.000000
vn 0.000000 1.000000 0.000000
vn 0.000000 1.000000 0.000000
vn 0.000000 -1.000000 0.000000
vn 0.000000 -1.000000 0.000000
vn 0.000000 0.000000 -1.000000
vn 0.000000 0.000000 -1.000000
vn 0.000000 0.000000 -1.000000
vn 0.000000 0.000000 -1.000000
vn 0.000000 1.000000 0.000000
vn -0.000002 0.000000 1.000000
vn -0.000002 0.000000 1.000000
vn -0.000002 0.000000 1.000000
vn -0.000002 0.000000 1.000000
vn 0.000002 0.000000 -1.000000
vn 0.000002 0.000000 -1.000000
vn 0.000002 0.000000 -1.000000
vn 0.000002 0.000000 -1.000000
s 1
g pCube1
usemtl initialShadingGroup
f 16/28/1 17/29/2 4/4/3 3/3/4
s 2
f 3/3/5 4/4/6 9/15/7 10/18/8
s 3
f 5/5/9 6/6/10 13/23/11 14/26/12
s 4
f 11/20/13 12/21/14 2/10/15 1/9/16
s 5
f 33/53/17 34/54/18 35/51/19 36/52/20
s 6
f 15/27/21 16/28/22 3/3/23 10/17/24
s 2
f 10/18/8 9/15/7 19/31/25 20/34/26
s 6
f 21/35/27 15/27/21 10/17/24 20/33/28
s 4
f 22/37/29 23/38/30 12/21/14 11/20/13
s 5
f 35/51/19 34/54/18 37/55/31 38/56/32
s 3
f 29/46/33 30/47/34 8/8/35 7/7/36
s 6
f 22/36/37 11/19/38 27/43/39 28/44/40
f 11/19/38 1/1/41 26/42/42 27/43/39
s 1
f 1/1/43 2/2/44 25/41/45 26/42/46
s 5
f 40/57/47 39/58/48 41/61/49 42/59/50
f 43/60/51 41/61/49 39/58/48 44/62/52
s 2
f 20/34/26 19/31/25 6/6/53 5/5/54
s 6
f 14/25/55 21/35/27 20/33/28 5/14/56
f 7/13/57 22/36/37 28/44/40 29/45/58
s 4
f 7/7/59 8/8/60 23/38/30 22/37/29
s 5
f 45/64/61 43/60/51 44/62/52 46/63/62
f 38/56/32 37/55/31 47/65/63 48/66/64
s 1
f 26/42/46 25/41/45 17/29/2 16/28/1
s 6
f 27/43/39 26/42/42 16/28/22 15/27/21
f 28/44/40 27/43/39 15/27/21 21/35/27
f 29/45/58 28/44/40 21/35/27 14/25/55
s 3
f 14/26/12 13/23/11 30/47/34 29/46/33
s 5
f 47/65/63 37/55/31 43/60/51 45/64/61
s off
f 24/40/65 18/30/66 32/50/67 31/49/68
s 5
f 42/59/50 41/61/49 34/54/18 33/53/17
s 2
f 9/16/7 4/4/6 36/52/69 35/51/70
s 1
f 4/4/3 17/29/2 33/53/71 36/52/72
s off
f 18/30/73 24/40/74 37/55/75 34/54/76
s 2
f 19/32/25 9/16/7 35/51/70 38/56/77
s 4
f 2/2/15 12/22/14 39/58/78 40/57/79
s 1
f 25/41/45 2/2/44 40/57/80 42/59/81
s off
f 31/49/82 32/50/83 41/61/84 43/60/85
s 4
f 12/22/14 23/39/30 44/62/86 39/58/78
f 23/39/30 8/11/60 46/63/87 44/62/86
s 3
f 8/11/35 30/48/34 45/64/88 46/63/89
f 13/24/11 6/12/10 48/66/90 47/65/91
s 2
f 6/12/53 19/32/25 38/56/77 48/66/92
s off
f 24/40/93 31/49/94 43/60/95 37/55/96
s 3
f 30/48/34 13/24/11 47/65/91 45/64/88
s off
f 32/50/97 18/30/98 34/54/99 41/61/100
s 1
f 17/29/2 25/41/45 42/59/81 33/53/71
