# Blender v2.79 (sub 0) OBJ File: ''
# www.blender.org
mtllib gems.mtl
o model.000_model.000
v 0.134322 0.114712 -0.037617
v 0.096296 0.077836 -0.070204
v 0.159818 0.106149 -0.085070
v 0.108365 0.248182 -0.094458
v 0.141563 0.216920 -0.052170
v 0.167060 0.208357 -0.099622
v 0.112336 0.102406 -0.134986
v 0.152154 0.152839 -0.128962
v 0.051024 0.173062 -0.037260
v 0.037601 0.117661 -0.065039
v 0.085084 0.121404 -0.015123
v 0.149813 0.166752 -0.032414
v 0.092325 0.223611 -0.029676
v 0.054848 0.159266 -0.132247
v 0.068856 0.211188 -0.128604
v 0.119578 0.204614 -0.149539
v 0.063098 0.109098 -0.112492
v 0.044843 0.219868 -0.079592
vn 0.4494 -0.8052 0.3868
vn 0.5639 0.8108 0.1567
vn 0.6629 -0.4521 -0.5967
vn -0.7072 -0.1725 0.6857
vn 0.1720 0.1269 0.9769
vn -0.3586 0.1613 -0.9195
vn 0.3423 -0.9035 -0.2579
vn -0.4588 -0.7400 0.4919
vn -0.3013 -0.8644 -0.4025
vn 0.9732 -0.0366 0.2271
vn -0.8613 -0.3024 -0.4082
vn -0.6629 0.4521 0.5967
vn -0.4489 0.8159 -0.3644
vn -0.3424 0.9035 0.2579
vn 0.4588 0.7400 -0.4919
vn -0.1628 0.7575 -0.6323
vn -0.9732 0.0366 -0.2271
vn -0.1721 -0.1269 -0.9769
vn -0.5639 -0.8108 -0.1567
vn -0.8478 0.2611 -0.4616
vn -0.4259 -0.3913 -0.8158
vn 0.1868 -0.7516 0.6326
vn 0.3013 0.8644 0.4025
vn 0.8192 -0.2931 0.4930
vn 0.4259 0.3913 0.8158
vn 0.3837 -0.2043 0.9006
vn 0.8613 0.3024 0.4082
vn -0.9610 0.1045 0.2559
vn -0.3604 0.1565 0.9196
vn 0.9537 -0.1076 -0.2810
vn 0.7072 0.1725 -0.6856
vn 0.3381 -0.1561 -0.9281
g model.000_model.000_model.000_model.000_mat21.001
usemtl mat21.001
s 1
f 1//1 2//1 3//1
f 4//2 5//2 6//2
f 7//3 8//3 3//3
f 9//4 10//4 11//4
f 12//5 13//5 11//5
f 14//6 15//6 16//6
f 2//7 7//7 3//7
f 11//8 10//8 2//8
f 2//9 17//9 7//9
f 12//10 3//10 6//10
f 14//11 17//11 10//11
f 9//12 13//12 18//12
f 4//13 15//13 18//13
f 4//14 18//14 13//14
f 4//15 6//15 16//15
f 4//16 16//16 15//16
f 14//17 10//17 18//17
f 14//18 16//18 7//18
f 2//19 10//19 17//19
f 14//20 18//20 15//20
f 14//21 7//21 17//21
f 1//22 11//22 2//22
f 4//23 13//23 5//23
f 12//24 1//24 3//24
f 12//25 5//25 13//25
f 12//26 11//26 1//26
f 12//27 6//27 5//27
f 9//28 18//28 10//28
f 9//29 11//29 13//29
f 8//30 6//30 3//30
f 8//31 16//31 6//31
f 7//32 16//32 8//32
o model.002_model.000
v -0.066037 0.051315 -0.084654
v -0.064661 0.113450 -0.048825
v -0.102281 -0.005576 -0.016954
v -0.303500 0.002615 -0.037670
v -0.305244 0.096709 -0.104375
v -0.265626 -0.013166 -0.098455
v -0.159094 -0.074386 -0.009317
v -0.147523 -0.059588 -0.050952
v -0.186676 0.109830 -0.145267
v -0.174325 0.177377 -0.149006
v -0.110075 0.137811 -0.130736
v -0.140358 0.053566 -0.140700
v -0.096250 0.031854 -0.114445
v -0.123922 0.185263 0.035954
v -0.207179 0.167936 0.067903
v -0.151004 0.012624 0.051697
v -0.274721 0.074883 -0.149864
v -0.253588 0.153658 -0.144944
v -0.308159 0.085308 -0.022379
v -0.293982 0.152797 -0.070731
v -0.276671 0.159591 0.009990
v -0.310438 0.055076 0.019136
v -0.238284 0.059159 0.058457
v -0.207296 -0.053595 -0.040935
v -0.171520 0.001742 -0.138271
v -0.182266 -0.046513 0.020876
v -0.231330 -0.022036 0.028189
v -0.265482 -0.016822 -0.002833
v -0.195311 0.262662 0.007990
v -0.261263 0.217635 -0.080908
v -0.082480 0.225800 -0.037228
v -0.124692 0.237003 -0.110678
v -0.233188 0.261197 -0.032010
v -0.212667 0.266838 -0.135102
v -0.171121 0.331935 -0.074249
v -0.234634 0.284749 -0.082503
v -0.241195 0.042517 -0.152607
vn 0.9242 -0.2060 0.3217
vn -0.8381 -0.3258 -0.4376
vn 0.7704 -0.6375 -0.0125
vn 0.2185 -0.0937 -0.9713
vn 0.1529 -0.6200 -0.7695
vn 0.3527 0.0300 0.9353
vn 0.0306 0.0541 -0.9981
vn -0.9590 -0.0016 -0.2834
vn 0.7999 -0.0941 0.5927
vn -0.4758 0.2281 0.8495
vn -0.1725 -0.8277 -0.5340
vn -0.5047 -0.8584 -0.0916
vn -0.3992 -0.8785 0.2623
vn -0.0829 -0.8529 -0.5154
vn -0.5401 -0.7831 0.3084
vn -0.5017 -0.8625 0.0663
vn -0.3811 -0.8839 0.2710
vn 0.2167 0.5023 0.8371
vn -0.8734 0.4640 0.1482
vn 0.8818 0.1847 -0.4340
vn 0.3984 0.2378 -0.8859
vn -0.6333 0.5112 0.5810
vn -0.8261 0.3461 -0.4448
vn -0.8323 0.3391 -0.4385
vn -0.8322 0.3392 -0.4386
vn 0.4842 0.6198 0.6175
vn -0.5867 0.7274 0.3561
vn -0.8255 0.3467 -0.4453
vn 0.5517 0.3539 -0.7552
vn -0.0366 -0.0486 -0.9981
vn -0.0857 0.1170 -0.9894
vn -0.8311 0.3189 -0.4557
vn 0.7732 0.5183 -0.3653
vn 0.8476 0.0803 0.5245
vn 0.1741 0.4258 -0.8879
vn 0.8599 0.2199 -0.4607
vn -0.5944 0.4817 0.6439
vn 0.4242 0.6273 0.6531
vn 0.7896 -0.0683 0.6098
vn -0.6441 0.1185 0.7557
vn 0.0269 -0.0941 0.9952
vn -0.9316 0.3192 0.1737
vn -0.9314 0.3166 0.1794
vn -0.9315 0.3171 0.1784
vn -0.7996 0.4187 -0.4304
vn -0.9815 0.0984 0.1645
vn -0.8497 -0.3286 -0.4125
vn -0.9317 0.3196 0.1729
vn -0.9956 -0.0405 -0.0842
vn 0.0240 -0.0612 -0.9978
vn -0.2156 -0.6305 -0.7456
vn 0.7073 -0.0164 -0.7067
vn 0.1660 0.0568 -0.9845
vn 0.7211 -0.4580 -0.5198
vn 0.8791 0.2233 -0.4210
vn 0.7900 -0.6069 -0.0871
vn 0.4842 -0.0709 -0.8721
vn 0.7150 -0.6222 -0.3187
vn -0.7491 0.2395 -0.6176
vn -0.5138 -0.4715 -0.7167
vn 0.1798 -0.0384 -0.9830
vn 0.0131 0.0979 -0.9951
vn -0.5133 0.7248 0.4595
vn -0.9098 0.3656 0.1966
vn -0.8922 0.4338 0.1258
vn -0.4912 0.7412 -0.4575
vn -0.1178 -0.3557 0.9271
vn -0.3968 -0.4860 0.7786
vn -0.6945 -0.5689 0.4405
vn -0.6647 -0.3103 0.6796
vn 0.5717 -0.5961 0.5638
vn -0.0791 -0.4275 0.9005
vn -0.1537 -0.9168 -0.3686
vn 0.5442 -0.3655 0.7551
g model.002_model.000_model.002_model.000_mat21.001
usemtl mat21.001
s 1
f 19//33 20//33 21//33
f 22//34 23//34 24//34
f 21//35 25//35 26//35
f 27//36 28//36 29//36
f 30//37 31//37 26//37
f 32//38 33//38 34//38
f 35//39 36//39 27//39
f 22//40 37//40 38//40
f 20//41 34//41 21//41
f 39//42 40//42 41//42
f 42//43 43//43 26//43
f 42//44 22//44 24//44
f 44//45 45//45 42//45
f 42//46 24//46 43//46
f 25//47 44//47 42//47
f 42//48 46//48 22//48
f 45//49 46//49 42//49
f 47//50 33//50 32//50
f 48//51 38//51 39//51
f 49//52 20//52 29//52
f 28//53 50//53 29//53
f 47//54 51//54 39//54
f 48//55 52//56 36//57
f 49//58 53//58 32//58
f 54//59 51//59 53//59
f 48//55 36//57 38//60
f 28//61 52//61 53//61
f 27//62 36//62 28//62
f 28//63 36//63 52//63
f 48//64 54//64 52//64
f 49//65 50//65 53//65
f 49//66 32//66 20//66
f 28//67 53//67 50//67
f 49//68 29//68 50//68
f 47//69 39//69 33//69
f 47//70 32//70 53//70
f 20//71 32//71 34//71
f 41//72 33//72 39//72
f 33//73 41//73 34//73
f 37//74 40//75 39//76
f 23//77 38//77 36//77
f 23//78 22//78 38//78
f 23//79 35//79 24//79
f 37//74 39//76 38//80
f 37//81 22//81 40//81
f 30//82 43//82 27//82
f 55//83 43//83 24//83
f 19//84 31//84 29//84
f 30//85 27//85 29//85
f 30//86 26//86 43//86
f 19//87 29//87 20//87
f 19//88 21//88 26//88
f 30//89 29//89 31//89
f 26//90 31//90 19//90
f 23//91 36//91 35//91
f 55//92 24//92 35//92
f 55//93 27//93 43//93
f 27//94 55//94 35//94
f 47//95 53//95 51//95
f 54//96 48//96 51//96
f 48//97 39//97 51//97
f 54//98 53//98 52//98
f 34//99 41//99 45//99
f 41//100 40//100 46//100
f 46//101 40//101 22//101
f 46//102 45//102 41//102
f 21//103 34//103 44//103
f 44//104 34//104 45//104
f 25//105 42//105 26//105
f 25//106 21//106 44//106
o model.000
v 0.130570 -0.031757 -0.012101
v 0.176745 -0.070159 -0.040114
v 0.142210 -0.085415 -0.150124
v 0.060665 -0.294409 -0.108639
v 0.000329 -0.238109 -0.118186
v 0.107478 -0.253435 -0.164343
v -0.047268 -0.197985 -0.083219
v -0.051408 -0.124776 -0.059914
v 0.019171 -0.146926 -0.150352
v -0.022599 -0.090720 -0.041865
v 0.053035 -0.050779 0.009068
v 0.041769 -0.054358 -0.078885
v 0.065998 -0.189082 0.059580
v 0.109391 -0.256551 0.047227
v 0.166007 -0.191834 0.050770
v 0.073272 -0.140628 -0.179118
v 0.076525 -0.041600 -0.130066
v 0.164228 -0.251540 -0.025863
v 0.194633 -0.197960 -0.049960
v 0.121767 -0.174811 -0.176854
v -0.016082 -0.235134 -0.027342
v 0.012565 -0.146087 0.035011
v 0.068968 -0.112136 0.053286
v 0.089479 -0.292849 -0.029412
v 0.135415 -0.253100 -0.105089
v 0.174404 -0.192576 -0.122761
v 0.152960 -0.103335 0.030713
v 0.024031 -0.052768 -0.122955
v 0.186301 -0.123480 -0.069175
v 0.105501 -0.299563 0.006216
vn 0.5115 0.8146 -0.2735
vn -0.3957 -0.5489 -0.7363
vn -0.7593 0.1580 -0.6313
vn -0.4804 0.8767 0.0259
vn 0.0836 -0.1272 0.9883
vn -0.4385 -0.2171 -0.8721
vn 0.4701 0.8353 -0.2851
vn -0.1245 0.2526 -0.9595
vn 0.8841 -0.3784 0.2743
vn -0.0573 -0.1467 -0.9875
vn 0.6586 -0.6009 0.4529
vn -0.6831 -0.7235 -0.0997
vn -0.7481 0.3268 0.5775
vn -0.3555 0.0898 0.9303
vn 0.4833 -0.8609 -0.1588
vn 0.7228 0.0410 -0.6899
vn 0.2273 0.2470 0.9420
vn -0.2405 0.9706 -0.0087
vn -0.2805 0.9586 0.0485
vn 0.8882 0.2221 0.4023
vn 0.0724 0.5954 0.8001
vn -0.4979 0.4182 0.7597
vn 0.1642 0.5437 0.8231
vn 0.0896 0.0778 0.9929
vn -0.5971 -0.3223 0.7346
vn -0.5508 0.7962 0.2504
vn -0.8355 -0.1084 0.5387
vn -0.6077 0.7064 -0.3628
vn -0.9046 -0.1749 0.3886
vn -0.6548 -0.1275 -0.7450
vn -0.7414 0.2225 -0.6331
vn -0.1922 0.9749 0.1125
vn -0.3753 0.7527 -0.5410
vn -0.6499 0.4439 0.6170
vn 0.7146 0.5099 0.4788
vn 0.9772 0.0649 0.2023
vn -0.4128 -0.2402 -0.8786
vn 0.9635 0.0395 -0.2648
vn 0.8846 0.3352 -0.3242
vn 0.8561 -0.2155 -0.4698
vn 0.7506 -0.6568 0.0715
vn 0.6354 -0.7301 -0.2514
vn 0.8967 0.1644 -0.4111
vn 0.6968 -0.5270 0.4866
vn -0.5102 -0.4611 0.7260
vn -0.4684 -0.8634 0.1874
vn -0.6708 -0.7353 -0.0971
vn 0.4797 -0.8490 -0.2214
vn 0.4641 -0.8088 -0.3611
vn -0.4873 -0.5791 0.6536
vn -0.4784 -0.8767 0.0499
vn -0.1877 0.2833 -0.9405
vn 0.7851 -0.5623 -0.2597
vn 0.9501 0.1732 0.2595
vn 0.6574 -0.2335 -0.7164
vn 0.2104 0.2356 -0.9488
vn 0.7397 -0.5774 -0.3455
g model.000_model.000_mat21.001
usemtl mat21.001
s 1
f 56//107 57//107 58//107
f 59//108 60//108 61//108
f 62//109 63//109 64//109
f 65//110 66//110 67//110
f 68//111 69//111 70//111
f 71//112 60//112 64//112
f 58//113 72//113 56//113
f 64//114 72//114 58//114
f 73//115 74//115 70//115
f 71//116 75//116 61//116
f 69//117 73//117 70//117
f 62//118 60//118 76//118
f 65//119 63//119 77//119
f 68//120 78//120 77//120
f 79//121 80//121 73//121
f 81//122 75//122 58//122
f 70//123 82//123 78//123
f 66//124 56//124 67//124
f 72//125 67//125 56//125
f 82//126 70//126 57//126
f 66//127 78//127 56//127
f 77//128 78//128 66//128
f 82//129 56//129 78//129
f 68//130 70//130 78//130
f 68//131 77//131 76//131
f 67//132 83//132 63//132
f 76//133 77//133 63//133
f 65//134 67//134 63//134
f 62//135 76//135 63//135
f 62//136 64//136 60//136
f 83//137 64//137 63//137
f 83//138 67//138 72//138
f 71//139 64//139 58//139
f 65//140 77//140 66//140
f 57//141 56//141 82//141
f 84//142 57//142 70//142
f 71//143 61//143 60//143
f 74//144 81//144 84//144
f 84//145 58//145 57//145
f 81//146 73//147 80//148
f 81//149 58//149 84//149
f 69//150 85//150 73//150
f 68//151 76//151 69//151
f 79//152 76//152 59//152
f 59//153 76//153 60//153
f 59//154 61//154 80//154
f 85//155 79//155 73//155
f 69//156 76//156 85//156
f 85//157 76//157 79//157
f 72//158 64//158 83//158
f 74//159 73//159 81//159
f 74//160 84//160 70//160
f 81//161 61//161 75//161
f 71//162 58//162 75//162
f 79//121 59//121 80//121
f 80//163 61//163 81//163
